# AST/ASF file generated using VICON BodyLanguage
# -----------------------------------------------
:version 1.10
:name VICON
:units
  mass 1.0
  length 0.45
  angle deg
:documentation
   .ast/.asf automatically generated from VICON data using
   VICON BodyBuilder and BodyLanguage model FoxedUp or BRILLIANT.MOD
:root
   order TX TY TZ RX RY RZ
   axis XYZ
   position 0 0 0  
   orientation 0 0 0 
:bonedata
  begin
     id 1 
     name lhipjoint
     direction 0.711131 -0.61297 0.344326 
     length 2.29162 
     axis 0 0 0  XYZ
  end
  begin
     id 2 
     name lfemur
     direction 0.34202 -0.939693 0  
     length 6.71424  
     axis 0 0 20  XYZ
    dof rx ry rz
    limits (-160.0 20.0)
           (-70.0 70.0)
           (-60.0 70.0)
  end
  begin
     id 3 
     name ltibia
     direction 0.34202 -0.939693 0   
     length 6.7087   
     axis 0 0 20   XYZ
    dof rx
    limits (-10.0 170.0)
  end
  begin
     id 4 
     name lfoot
     direction 0.0230374 -0.0632947 0.997729   
     length 1.56743   
     axis -90 7.62852e-016 20   XYZ
    dof rx rz
    limits (-45.0 90.0)
           (-70.0 20.0)
  end
  begin
     id 5 
     name ltoes
     direction 1.53585e-011 -4.21885e-011 1   
     length 0.802914   
     axis -90 7.62852e-016 20   XYZ
    dof rx
    limits (-90.0 20.0)
  end
  begin
     id 6 
     name rhipjoint
     direction -0.733192 -0.592884 0.333043   
     length 2.36925  
     axis 0 0 0  XYZ 
  end
  begin
     id 7 
     name rfemur
     direction -0.34202 -0.939693 0   
     length 6.67027   
     axis 0 0 -20   XYZ
    dof rx ry rz
    limits (-160.0 20.0)
           (-70.0 70.0)
           (-70.0 60.0)
  end
  begin
     id 8 
     name rtibia
     direction -0.34202 -0.939693 0   
     length 6.6862   
     axis 0 0 -20   XYZ
    dof rx
    limits (-10.0 170.0)
 end
 begin
     id 9 
     name rfoot
     direction -0.0949739 -0.260939 0.960672   
     length 1.67698  
     axis -90 -7.62852e-016 -20   XYZ
    dof rx rz
    limits (-45.0 90.0)
           (-20.0 70.0)
  end
  begin
     id 10 
     name rtoes
     direction -1.5353e-011 -4.21868e-011 1   
     length 0.846298   
     axis -90 -7.62852e-016 -20   XYZ
    dof rx
    limits (-90.0 20.0)
  end
  begin
     id 11 
     name lowerback
     direction -0.0206828 0.999785 -0.00109866   
     length 2.04382   
     axis 0 0 0   XYZ
    dof rx ry rz
    limits (-20.0 45.0)
           (-30.0 30.0)
           (-30.0 30.0)
  end
  begin
     id 12 
     name upperback
     direction -0.0105003 0.999727 -0.0208904   
     length 2.04538   
     axis 0 0 0   XYZ
    dof rx ry rz
    limits (-20.0 45.0)
           (-30.0 30.0)
           (-30.0 30.0)
  end
  begin
     id 13 
     name thorax
     direction -0.000416255 0.999808 -0.0196023   
     length 2.0399   
     axis 0 0 0   XYZ
    dof rx ry rz
    limits (-20.0 45.0)
           (-30.0 30.0)
           (-30.0 30.0)
  end
  begin
     id 14 
     name lowerneck
     direction 0.0627861 0.989205 0.13241   
     length 1.46207   
     axis 0 0 0   XYZ
    dof rx ry rz
    limits (-20.0 45.0)
           (-30.0 30.0)
           (-30.0 30.0)
  end
  begin
     id 15 
     name upperneck
     direction 0.00627179 0.994526 0.104303   
     length 1.41419   
     axis 0 0 0   XYZ
    dof rx ry rz
    limits (-20.0 45.0)
           (-30.0 30.0)
           (-30.0 30.0)
  end
  begin
     id 16
     name head
     direction -0.00443838 0.999688 0.0245968  
     length 1.50718  
     axis 0 0 0   XYZ
    dof rx ry rz
    limits (-20.0 45.0)
           (-30.0 30.0)
           (-30.0 30.0)
  end
  begin
     id 17 
     name lclavicle
     direction 0.758742 0.650995 -0.0227258  
     length 2.86888  
     axis 0 0 0   XYZ
    dof ry rz
    limits (-20.0 10.0)
           (0.0 20.0)
  end
  begin
     id 18 
     name lhumerus
     direction 1 -4.48962e-011 1.06664e-027   
     length 4.65776   
     axis -180 -30 -90   XYZ
    dof rx ry rz
    limits (-60.0 90.0)
           (-90.0 90.0)
           (-90.0 90.0)
  end
  begin
     id 19
     name lradius
     direction 1 -4.48968e-011 1.40404e-026   
     length 3.55539   
     axis -180 -30 -90   XYZ
    dof rx
    limits (-10.0 170.0)
  end
  begin
     id 20
     name lwrist
     direction 1 -4.48976e-011 3.32647e-026   
     length 1.77769   
     axis -2.20186e-014 90 90   XYZ
    dof ry
    limits (-180.0 0.0)
 end
  begin
     id 21 
     name lhand
     direction 1 -4.48982e-011 6.65293e-026   
     length 0.707264   
     axis -4.24514e-014 90 90   XYZ
    dof rx rz
    limits (-90.0 90.0)
           (-45.0 45.0)
  end
  begin
     id 22 
     name lfingers
     direction 1 -4.48966e-011 1.33059e-025   
     length 0.570215   
     axis -8.49028e-014 90 90   XYZ
    dof rx
    limits (0.0 90.0)
  end
  begin
     id 23
     name lthumb
     direction 0.707107 -6.3493e-011 0.707107   
     length 0.818718   
     axis -90 45 2.85299e-015   XYZ
    dof rx rz
    limits (-45.0 45.0)
           (-45.0 45.0)
  end
  begin
     id 24 
     name rclavicle
     direction -0.870343 0.482028 -0.100759   
     length 3.2251  
     axis 0 0 0   XYZ 
    dof ry rz
    limits (-10.0 20.0)
           (-20.0 0.0)
  end
  begin
     id 25 
     name rhumerus
     direction -1 -4.48974e-011 -9.45849e-028  
     length 4.71925   
     axis -180 30 90   XYZ
    dof rx ry rz
    limits (-90.0 60.0)
           (-90.0 90.0)
           (-90.0 90.0)
  end
  begin
     id 26 
     name rradius
     direction -1 -4.48965e-011 1.17607e-026   
     length 3.5699   
     axis -180 30 90   XYZ
    dof rx
    limits (-10.0 170.0)
  end
  begin
     id 27 
     name rwrist
     direction -1 -4.48968e-011 3.32647e-026   
     length 1.78495   
     axis -2.20186e-014 -90 -90   XYZ
    dof ry
    limits (-180.0 0.0)
  end
  begin
     id 28
     name rhand
     direction -1 -4.48995e-011 6.65293e-026   
     length 0.507757   
     axis -4.24514e-014 -90 -90   XYZ
    dof rx rz
    limits (-90.0 90.0)
           (-45.0 45.0)
  end
  begin
     id 29
     name rfingers
     direction -1 -4.48864e-011 1.33059e-025   
     length 0.409367   
     axis -8.49028e-014 -90 -90   XYZ
    dof rx
    limits (0.0 90.0)
  end
  begin
     id 30
     name rthumb
     direction -0.707107 -6.3494e-011 0.707107   
     length 0.587771   
     axis -90 -45 -2.85299e-015   XYZ
    dof rx rz
    limits (-45.0 45.0)
           (-45.0 45.0)
  end
:hierarchy
  begin
    root lhipjoint rhipjoint lowerback
    lhipjoint lfemur
    lfemur ltibia
    ltibia lfoot
    lfoot ltoes
    rhipjoint rfemur
    rfemur rtibia
    rtibia rfoot
    rfoot rtoes
    lowerback upperback
    upperback thorax
    thorax lowerneck lclavicle rclavicle
    lowerneck upperneck
    upperneck head
    lclavicle lhumerus
    lhumerus lradius
    lradius lwrist
    lwrist lhand lthumb
    lhand lfingers
    rclavicle rhumerus
    rhumerus rradius
    rradius rwrist
    rwrist rhand rthumb
    rhand rfingers
  end

#!OML:ASF E:\Steps\Project 1\Capture day 1\Session 2\Subject.ASF
:FULLY-SPECIFIED
:DEGREES
38
root 8.99687 16.2601 31.2757 -153.509 -0.905709 179.003
lowerback -31.5665 -1.44688 -5.49998
upperback -2.17822 -0.80732 -0.521018
thorax 14.0419 -1.06285 1.98647
lowerneck -0.157954 -2.91563 -1.36564
upperneck -10.0124 -4.01556 5.40882
head -3.04381 -2.34252 2.11312
rclavicle -7.25564e-015 -1.23246e-014
rhumerus -25.9108 -18.2112 -84.7752
rradius 20.4014
rwrist 7.36193
rhand -7.28484 -52.3481
rfingers 7.12502
rthumb 18.5969 -81.4791
lclavicle -7.25564e-015 -1.23246e-014
lhumerus -24.238 -2.66812 87.7754
lradius 14.9001
lwrist -10.2292
lhand -22.3462 -12.9825
lfingers 7.12502
lthumb 4.07442 16.9582
rfemur -24.0789 7.75793 19.1169
rtibia 9.14427
rfoot -20.7461 -8.45393
rtoes -33.1583
lfemur -24.1844 -8.1553 -19.4113
ltibia 8.717
lfoot -9.16598 3.9886
ltoes -38.593
39
root 8.99824 16.2583 31.2762 -153.457 -0.938917 179.033
lowerback -31.586 -1.44704 -5.49646
upperback -2.21469 -0.819373 -0.497337
thorax 14.0092 -1.07023 2.00477
lowerneck -0.094933 -2.92402 -1.37253
upperneck -10.0426 -4.02374 5.4368
head -3.06506 -2.34826 2.12658
rclavicle 9.59136e-015 4.77083e-015
rhumerus -25.9527 -18.391 -84.6508
rradius 20.3475
rwrist 7.4435
rhand -7.2832 -52.2382
rfingers 7.12502
rthumb 18.5984 -81.3691
lclavicle 9.59136e-015 4.77083e-015
lhumerus -24.3975 -2.97938 87.9232
lradius 14.9763
lwrist -10.3022
lhand -22.4281 -12.3048
lfingers 7.12502
lthumb 3.9954 17.6375
rfemur -24.1415 7.79386 19.1429
rtibia 9.18052
rfoot -20.7945 -8.4932
rtoes -33.0959
lfemur -24.2631 -8.18332 -19.3325
ltibia 8.74674
lfoot -9.19228 3.93898
ltoes -38.4111
40
root 8.99642 16.2617 31.2621 -153.783 -1.15694 178.929
lowerback -31.3865 -1.547 -5.53115
upperback -2.12691 -0.919052 -0.500838
thorax 14.0327 -1.10717 1.98499
lowerneck -0.108349 -2.89967 -1.40696
upperneck -9.99969 -3.98981 5.43757
head -3.04861 -2.32816 2.13049
rclavicle -1.13307e-014 -7.55382e-015
rhumerus -25.9938 -18.4433 -84.5815
rradius 20.312
rwrist 7.50089
rhand -7.28552 -52.0928
rfingers 7.12502
rthumb 18.5962 -81.2239
lclavicle -1.13307e-014 -7.55382e-015
lhumerus -24.3964 -2.65373 87.8037
lradius 14.91
lwrist -10.3075
lhand -22.0103 -12.2056
lfingers 7.12502
lthumb 4.39886 17.7287
rfemur -23.5175 7.86622 19.0684
rtibia 8.8275
rfoot -20.7127 -8.67641
rtoes -32.5122
lfemur -23.7776 -8.46155 -19.4315
ltibia 8.57791
lfoot -9.14035 3.96692
ltoes -39.2647
41
root 8.99369 16.2501 31.2786 -153.067 -0.529087 179.241
lowerback -31.9749 -1.22618 -5.25816
upperback -2.32659 -0.638949 -0.491223
thorax 14.0338 -0.992168 1.94636
lowerneck -0.160408 -2.87924 -1.41219
upperneck -9.97939 -3.96439 5.42667
head -3.03304 -2.31439 2.12517
rclavicle -5.81445e-015 -8.74653e-015
rhumerus -26.0015 -18.431 -84.5491
rradius 20.3288
rwrist 7.47567
rhand -7.22928 -52.0859
rfingers 7.12502
rthumb 18.6503 -81.2118
lclavicle -5.81445e-015 -8.74653e-015
lhumerus -24.3077 -2.27106 87.6636
lradius 14.8169
lwrist -10.28
lhand -21.6849 -11.982
lfingers 7.12502
lthumb 4.71302 17.9456
rfemur -24.8472 7.81401 19.2332
rtibia 9.49429
rfoot -20.7757 -7.9276
rtoes -32.5843
lfemur -24.6517 -8.23804 -19.1289
ltibia 8.68498
lfoot -9.07438 4.56383
ltoes -39.9108
42
root 8.99599 16.2568 31.2646 -153.509 -0.860377 179.007
lowerback -31.6426 -1.41736 -5.49792
upperback -2.18766 -0.771454 -0.51272
thorax 14.0612 -1.04936 2.00703
lowerneck -0.21046 -2.89208 -1.38458
upperneck -9.96072 -3.98229 5.438
head -3.01691 -2.32457 2.1224
rclavicle -4.96962e-016 -1.82882e-014
rhumerus -26.0084 -18.3863 -84.5605
rradius 20.3629
rwrist 7.38335
rhand -7.24612 -52.1938
rfingers 7.12502
rthumb 18.6341 -81.3213
lclavicle -4.96962e-016 -1.82882e-014
lhumerus -24.3655 -2.4186 87.6988
lradius 14.8349
lwrist -10.4062
lhand -21.7184 -11.4317
lfingers 7.12502
lthumb 4.68067 18.4966
rfemur -24.0184 7.9354 19.0626
rtibia 9.13715
rfoot -20.7525 -8.44855
rtoes -32.4505
lfemur -24.1263 -8.2509 -19.415
ltibia 8.68782
lfoot -9.04103 4.10785
ltoes -39.9375
43
root 8.99918 16.2587 31.2581 -153.69 -1.06505 178.945
lowerback -31.4798 -1.49997 -5.56784
upperback -2.14072 -0.844952 -0.51716
thorax 14.0509 -1.0794 2.01443
lowerneck -0.26035 -2.91299 -1.3773
upperneck -9.91455 -4.00911 5.46536
head -2.9905 -2.33779 2.12784
rclavicle -9.19379e-015 1.55052e-014
rhumerus -26.0167 -18.3964 -84.5725
rradius 20.3544
rwrist 7.35337
rhand -7.36575 -52.3605
rfingers 7.12502
rthumb 18.519 -81.499
lclavicle -9.19379e-015 1.55052e-014
lhumerus -24.3751 -2.30131 87.6174
lradius 14.7065
lwrist -10.7392
lhand -21.8647 -11.6867
lfingers 7.12502
lthumb 4.53941 18.2447
rfemur -23.6435 7.94039 19.0697
rtibia 9.01151
rfoot -20.8201 -8.64013
rtoes -32.2227
lfemur -23.9225 -8.24562 -19.4636
ltibia 8.70017
lfoot -9.06345 3.86772
ltoes -40.112
44
root 9.00059 16.2596 31.2542 -153.774 -1.18118 178.957
lowerback -31.3769 -1.52666 -5.55047
upperback -2.1488 -0.889978 -0.506082
thorax 14.0007 -1.0957 2.0016
lowerneck -0.249468 -2.91951 -1.39092
upperneck -9.88421 -4.01436 5.49694
head -2.98125 -2.33974 2.1402
rclavicle -1.2424e-015 7.55382e-015
rhumerus -26.0477 -18.5163 -84.5131
rradius 20.2883
rwrist 7.44606
rhand -7.4905 -52.6123
rfingers 7.12502
rthumb 18.399 -81.7622
lclavicle -1.2424e-015 7.55382e-015
lhumerus -24.3856 -2.1559 87.5593
lradius 14.6172
lwrist -10.8787
lhand -22.0719 -11.7265
lfingers 7.12502
lthumb 4.33931 18.209
rfemur -23.4833 7.8203 19.1714
rtibia 9.02918
rfoot -20.9042 -8.70488
rtoes -32.5632
lfemur -23.8147 -8.52586 -19.3629
ltibia 8.68371
lfoot -9.13065 4.09659
ltoes -40.4773
45
root 9.00032 16.2523 31.2639 -153.334 -0.699096 179.183
lowerback -31.7181 -1.28346 -5.36253
upperback -2.30739 -0.671182 -0.517819
thorax 13.9474 -1.00367 1.96665
lowerneck -0.205805 -2.92168 -1.39569
upperneck -9.86749 -4.01226 5.54044
head -2.983 -2.33932 2.15621
rclavicle -9.93923e-017 6.75868e-015
rhumerus -26.1536 -18.4019 -84.5038
rradius 20.3291
rwrist 7.29109
rhand -7.55271 -52.7436
rfingers 7.12502
rthumb 18.3392 -81.8991
lclavicle -9.93923e-017 6.75868e-015
lhumerus -24.464 -2.21772 87.5482
lradius 14.6476
lwrist -10.8183
lhand -22.0917 -11.4563
lfingers 7.12502
lthumb 4.32019 18.4797
rfemur -24.3513 7.84981 19.292
rtibia 9.54039
rfoot -21.0382 -8.29057
rtoes -33.1287
lfemur -24.3152 -8.50399 -19.098
ltibia 8.70215
lfoot -9.16953 4.62568
ltoes -39.9661
46
root 9.00158 16.2545 31.262 -153.377 -0.830068 179.161
lowerback -31.6668 -1.32598 -5.36087
upperback -2.29551 -0.725206 -0.509319
thorax 13.9433 -1.02548 1.9545
lowerneck -0.335007 -2.89242 -1.41649
upperneck -9.77043 -3.97621 5.50513
head -2.92755 -2.31567 2.14073
rclavicle -4.91992e-015 8.34896e-015
rhumerus -26.2464 -17.9322 -84.5861
rradius 20.5053
rwrist 6.81312
rhand -7.52265 -52.7811
rfingers 7.12502
rthumb 18.3681 -81.9338
lclavicle -4.91992e-015 8.34896e-015
lhumerus -24.4205 -1.94946 87.4089
lradius 14.7066
lwrist -10.4423
lhand -21.5246 -11.4731
lfingers 7.12502
lthumb 4.86778 18.451
rfemur -24.1942 7.992 19.2796
rtibia 9.38603
rfoot -21.028 -8.49397
rtoes -32.9538
lfemur -24.2941 -8.30507 -19.1512
ltibia 8.75012
lfoot -9.15708 4.24407
ltoes -39.4062
